<?xml version="1.0" standalone="no"?><!DOCTYPE svg PUBLIC "-//W3C//DTD SVG 1.1//EN" "http://www.w3.org/Graphics/SVG/1.1/DTD/svg11.dtd"><svg t="1722142607869" class="icon" viewBox="0 0 1024 1024" version="1.1" xmlns="http://www.w3.org/2000/svg" p-id="1541" xmlns:xlink="http://www.w3.org/1999/xlink" width="200" height="200"><path d="M800 96H224c-70.4 0-128 57.6-128 128v576c0 70.4 57.6 128 128 128h576c70.4 0 128-57.6 128-128V224c0-70.4-57.6-128-128-128zM660.5 536.6l-192 160c-5.9 4.9-13.1 7.4-20.5 7.4-4.6 0-9.2-1-13.6-3-11.2-5.3-18.4-16.6-18.4-29V352c0-12.4 7.2-23.7 18.4-29s24.5-3.6 34.1 4.4l192 160c7.3 6.1 11.5 15.1 11.5 24.6s-4.2 18.5-11.5 24.6z" fill="#1875F0" p-id="1542"></path></svg>